<?xml version="1.0" encoding="utf-8"?><!-- Uploaded to: SVG Repo, www.svgrepo.com, Generator: SVG Repo Mixer Tools -->
<svg fill="#000000" width="800px" height="800px" viewBox="0 0 24 24" id="tornado" data-name="Flat Color" xmlns="http://www.w3.org/2000/svg" class="icon flat-color"><path id="primary" d="M20.89,2.55A1,1,0,0,0,20,2H4A1,1,0,0,0,3,3a13.38,13.38,0,0,0,3.94,9.72A9.67,9.67,0,0,1,10,20.91a1,1,0,0,0,.43.91A1,1,0,0,0,11,22a1,1,0,0,0,.44-.1C11.71,21.77,18,18.63,18,12a15.8,15.8,0,0,1,2.8-8.4A1,1,0,0,0,20.89,2.55Z" style="fill: rgb(0, 0, 0);"></path><path id="secondary" d="M19,15H14a1,1,0,0,1,0-2h5a1,1,0,0,1,0,2ZM9,12H5a1,1,0,0,1,0-2H9a1,1,0,0,1,0,2ZM20,8H12a1,1,0,0,1,0-2h8a1,1,0,0,1,0,2Z" style="fill: rgb(44, 169, 188);"></path></svg>